<svg width="64" height="64" viewBox="0 0 64 64" fill="none" xmlns="http://www.w3.org/2000/svg">
<g clip-path="url(#clip0_6303_282)">
<path d="M23.9999 64.4139L16.5859 56.9999L17.2929 56.2929C18.6169 54.9689 18.9999 54.0059 18.9999 51.9999C18.9999 47.9439 16.0559 44.9999 11.9999 44.9999C9.99394 44.9999 9.03094 45.3829 7.70694 46.7069L6.99994 47.4139L-0.414062 39.9999L39.9999 -0.414062L47.4139 6.99994L46.7069 7.70694C45.3829 9.03094 44.9999 9.99394 44.9999 11.9999C44.9999 16.0559 47.9439 18.9999 51.9999 18.9999C54.0059 18.9999 54.9689 18.6169 56.2929 17.2929L56.9999 16.5859L64.4139 23.9999L23.9999 64.4139ZM19.3859 56.9709L23.9999 61.5859L61.5859 23.9999L56.9719 19.3859C55.5499 20.5779 54.1809 20.9999 51.9999 20.9999C46.8689 20.9999 42.9999 17.1309 42.9999 11.9999C42.9999 9.81894 43.4219 8.44994 44.6139 7.02894L39.9999 2.41394L2.41394 39.9999L7.02794 44.6139C8.44994 43.4219 9.81894 42.9999 11.9999 42.9999C17.1309 42.9999 20.9999 46.8689 20.9999 51.9999C20.9999 54.1809 20.5779 55.5499 19.3859 56.9709Z" fill="white"/>
<path d="M30.7071 18.293L26.707 14.293L25.2928 15.7072L29.2929 19.7072L30.7071 18.293Z" fill="white"/>
<path d="M49.7071 37.2925L45.707 33.2925L44.2928 34.7067L48.2929 38.7067L49.7071 37.2925Z" fill="white"/>
<path d="M36.7071 24.2928L32.707 20.2927L31.2928 21.7069L35.2929 25.707L36.7071 24.2928Z" fill="white"/>
<path d="M43.7071 31.2928L39.707 27.2927L38.2928 28.7069L42.2929 32.707L43.7071 31.2928Z" fill="white"/>
</g>
<defs>
<clipPath id="clip0_6303_282">
<rect width="64" height="64" fill="white"/>
</clipPath>
</defs>
</svg>
